<svg width="100" height="40" viewBox="0 0 100 40" fill="none" xmlns="http://www.w3.org/2000/svg">
    <path d="M54.669 37.0729V39.1979H60.383V17.8039H54.634V29.4769C54.634 30.9749 54.216 32.1599 53.344 32.9969C52.474 33.8319 51.359 34.2499 49.93 34.2499C48.676 34.2499 47.7 33.8669 47.003 33.0659C46.307 32.2639 45.958 31.2539 45.958 29.9649V17.8049H40.209V30.9399C40.209 32.2639 40.418 33.4139 40.801 34.4939C41.185 35.5399 41.742 36.4459 42.474 37.2119C43.205 37.9789 44.077 38.5359 45.087 38.9539C46.097 39.3719 47.247 39.5809 48.502 39.5809C49.791 39.5809 50.976 39.3719 52.056 38.9189C53.066 38.4659 53.937 37.8739 54.669 37.0729ZM70.244 20.7309V17.8039H64.46V39.1979H70.313V29.4419C70.313 27.5949 70.801 26.0969 71.777 24.9819C72.753 23.9019 74.32 23.3449 76.481 23.3449V17.5249C75.157 17.5249 73.972 17.8049 72.927 18.3969C71.847 18.9889 70.976 19.7559 70.244 20.7309ZM98.85 24.2159C98.362 22.8919 97.63 21.7419 96.725 20.7659C95.784 19.7909 94.669 19.0239 93.345 18.4659C92.021 17.9089 90.488 17.6299 88.815 17.6299C87.143 17.6299 85.61 17.9089 84.215 18.5009C82.822 19.0939 81.638 19.8949 80.627 20.9059C79.617 21.9159 78.85 23.1009 78.293 24.4599C77.735 25.8179 77.491 27.2819 77.456 28.7799C77.456 30.3479 77.7 31.8459 78.258 33.2049C78.78 34.5639 79.547 35.7489 80.523 36.7249C81.498 37.6999 82.683 38.5009 84.077 39.0589C85.435 39.6159 87.003 39.9289 88.711 39.9289C91.115 39.9289 93.136 39.4769 94.773 38.5709C96.411 37.6649 97.77 36.4459 98.85 34.8429L94.53 32.1599C93.902 33.0299 93.136 33.6929 92.195 34.2159C91.255 34.7379 90.139 34.9819 88.85 34.9819C87.352 34.9819 86.097 34.5639 85.122 33.7619C84.146 32.9619 83.484 31.8819 83.171 30.5219L99.512 30.5569C99.512 30.4869 99.512 30.2429 99.547 29.7909C99.582 29.3379 99.582 28.9189 99.582 28.5009C99.582 27.0029 99.338 25.5399 98.85 24.2159ZM83.38 26.2709C83.763 25.0509 84.425 24.1109 85.33 23.4139C86.237 22.7169 87.352 22.4039 88.746 22.4039C89.93 22.4039 90.976 22.7169 91.916 23.3789C92.857 24.0069 93.484 24.9819 93.798 26.3059L83.38 26.2709ZM0 18.5009H5.784V39.8949H0V18.5009Z" fill="#303443"/>
    <path d="M32.7868 22.056L37.9438 18.501C36.2718 14.564 33.5538 12.857 31.4638 11.811C29.6508 10.906 27.6308 10.313 25.4008 10.139V7.352C26.8288 6.829 27.8398 5.435 27.8398 3.797C27.8398 1.707 26.1318 0 24.0418 0C21.9518 0 20.2788 1.742 20.2788 3.832C20.2788 5.47 21.2888 6.829 22.7178 7.386V10.139C21.0098 10.243 19.4078 10.627 17.8738 11.254C16.0278 12.02 14.3898 13.066 13.0658 14.39C11.7068 15.714 10.6618 17.282 9.86078 19.094C9.09378 20.871 8.67578 22.822 8.67578 24.912C8.67578 27.003 9.05878 28.954 9.86078 30.766C10.6608 32.578 11.7068 34.181 13.1008 35.505C14.4948 36.864 16.0968 37.909 17.9788 38.675C19.8608 39.442 21.8808 39.825 24.0768 39.825C27.0028 39.825 29.5118 39.198 31.6028 37.944C33.6928 36.689 35.4348 34.912 36.8288 32.683L31.8468 29.129C31.0448 30.557 29.9648 31.672 28.6408 32.509C27.3168 33.345 25.7838 33.763 24.0408 33.763C22.7868 33.763 21.6378 33.519 20.5568 33.066C19.4768 32.613 18.5708 31.986 17.7698 31.184C17.0028 30.383 16.3758 29.442 15.9578 28.362C15.5398 27.282 15.2958 26.097 15.2958 24.842C15.2958 23.623 15.5058 22.473 15.9578 21.393C16.3758 20.313 17.0028 19.407 17.7348 18.606C18.5018 17.804 19.4078 17.177 20.4178 16.724C21.4628 16.271 22.5778 16.027 23.7978 16.027C25.6448 16.027 27.1778 16.446 28.4318 17.317C29.7558 18.223 31.9518 20.662 32.7868 22.055V22.056Z" fill="#084B83"/>
    <path d="M27.387 24.9169C26.049 24.9169 24.943 23.8125 24.943 22.4389C24.943 21.0642 26.0491 19.9599 27.387 19.9599C27.8793 19.9599 28.3404 20.1097 28.7264 20.3676C28.62 20.3131 28.4969 20.2829 28.363 20.2829C27.9249 20.2829 27.6 20.6064 27.6 21.0449C27.6 21.4865 27.9622 21.8069 28.362 21.8069C28.7628 21.8069 29.124 21.4864 29.124 21.0449C29.124 20.8301 29.0464 20.6427 28.9157 20.5075C29.4713 20.961 29.83 21.6561 29.83 22.4389C29.83 23.8125 28.7238 24.9169 27.387 24.9169ZM21.045 24.9169C19.7081 24.9169 18.602 23.8125 18.602 22.4389C18.602 21.0641 19.7071 19.9599 21.045 19.9599C22.3828 19.9599 23.489 21.0642 23.489 22.4389C23.489 23.8125 22.3829 24.9169 21.045 24.9169ZM22.469 21.0449C22.469 20.6066 22.1452 20.2829 21.707 20.2829C21.3072 20.2829 20.945 20.6032 20.945 21.0449C20.945 21.4865 21.3072 21.8069 21.707 21.8069C22.1078 21.8069 22.469 21.4864 22.469 21.0449Z" fill="#1D2235" stroke="#CAD0D5" stroke-width="0.2"/>
    <path d="M21.7069 21.6721C22.0899 21.6721 22.3689 21.3931 22.3689 21.0101C22.3689 20.6271 22.0559 20.3481 21.7069 20.3481C21.3589 20.3481 21.0449 20.6271 21.0449 21.0101C21.0449 21.3931 21.3589 21.6721 21.7069 21.6721ZM28.3619 21.6721C28.7459 21.6721 29.0239 21.3931 29.0239 21.0101C29.0239 20.6271 28.7109 20.3481 28.3619 20.3481C28.0139 20.3481 27.6999 20.6271 27.6999 21.0101C27.6999 21.3931 27.9789 21.6721 28.3619 21.6721Z" fill="white"/>
</svg>
