<svg width="250" height="58" viewBox="0 0 250 58" fill="none" xmlns="http://www.w3.org/2000/svg">
    <g clip-path="url(#clip0_5465_52886)">
        <path fill-rule="evenodd" clip-rule="evenodd" d="M56.6736 0.0232412V19.6216C56.5754 23.8451 56.9971 27.4465 56.0931 30.2582C54.6315 34.8074 52.3072 37.2058 48.8851 40.5598C46.0946 43.2946 43.3475 46.0736 40.5996 48.8515C38.4243 51.0501 36.0159 53.5951 33.8879 55.7189C33.1638 56.4423 32.7275 56.8261 32.2309 57.3103V34.5296C32.2633 33.9553 32.2899 33.6394 32.3966 33.1896C32.5845 32.3986 32.7048 31.5899 32.9768 30.8442C33.8314 28.4993 34.8763 26.7052 36.2082 24.8979C37.3127 23.8094 38.3348 22.72 39.4395 21.6315C40.4272 20.5338 41.3855 19.6645 42.3391 18.7001C43.7478 17.2488 45.1565 15.7965 46.5652 14.3453C49.3975 11.4822 51.438 9.83365 51.7851 5.04859C48.7859 4.98314 46.7786 6.18588 45.1565 7.56101C44.729 7.92381 44.254 8.49807 43.8308 8.90094C43.6 9.12069 43.3569 9.38632 43.3337 9.40343C43.2 9.50209 42.617 10.131 42.4221 10.3249C41.642 11.1018 41.1554 11.5266 40.2681 12.5023C39.9087 12.8373 39.467 13.3398 39.1076 13.6748C38.288 14.504 37.5275 15.3107 36.7054 16.1037C36.2909 16.5505 35.7937 16.9973 35.3792 17.4437C33.9382 18.9003 32.5043 20.5177 30.8222 21.7155C28.913 23.0745 26.7377 24.0008 24.1111 24.5629C22.3468 24.9404 18.6348 24.8144 15.9913 24.8144H0C1.22464 23.6287 7.14058 17.596 8.0367 16.6902C10.9647 13.7309 13.8918 10.7712 16.8198 7.81247C19.6329 4.96849 22.159 2.18065 26.4309 0.777208C29.4237 -0.206275 33.6667 0.0232412 37.6163 0.0232412H56.6736Z" fill="#084B83"/>
        <path d="M66.1699 29.8428V30.6017H64.2424V36.9904H63.3192V30.6017H61.3815V29.8428H66.1699ZM70.0656 31.2682C70.4852 31.2682 70.8638 31.3605 71.2018 31.5451C71.5402 31.7228 71.804 31.9929 71.9931 32.3552C72.1895 32.7176 72.2873 33.1585 72.2873 33.6781V36.9904H71.3743V33.8114C71.3743 33.2508 71.2359 32.8235 70.9583 32.5296C70.6812 32.2288 70.3025 32.0784 69.8221 32.0784C69.3352 32.0784 68.9464 32.2322 68.6554 32.5398C68.3714 32.8475 68.2294 33.2953 68.2294 33.8832V36.9904H67.3062V29.4019H68.2294V32.1706C68.412 31.8835 68.6623 31.6613 68.9801 31.5041C69.3047 31.3469 69.6667 31.2682 70.0656 31.2682ZM78.8681 33.9652C78.8681 34.143 78.858 34.331 78.8377 34.5292H74.3942C74.4279 35.083 74.6138 35.5171 74.9522 35.8316C75.2971 36.1392 75.7131 36.2931 76.2 36.2931C76.5989 36.2931 76.9304 36.2008 77.1942 36.0162C77.4645 35.8248 77.654 35.5718 77.7623 35.2573H78.7565C78.6076 35.7974 78.3102 36.2384 77.8638 36.5802C77.4174 36.9153 76.8627 37.0827 76.2 37.0827C75.6725 37.0827 75.1989 36.9629 74.7797 36.7238C74.367 36.4845 74.0424 36.1461 73.8058 35.7085C73.5688 35.2642 73.4507 34.7514 73.4507 34.1703C73.4507 33.5892 73.5656 33.0799 73.7957 32.6424C74.0254 32.2048 74.3467 31.8699 74.7594 31.6374C75.1786 31.3981 75.6587 31.2785 76.2 31.2785C76.7275 31.2785 77.1942 31.3947 77.6 31.6271C78.0058 31.8596 78.3167 32.1809 78.5333 32.5911C78.7565 32.9944 78.8681 33.4525 78.8681 33.9652ZM77.9145 33.7704C77.9145 33.4149 77.8366 33.1107 77.6812 32.8577C77.5254 32.5979 77.3123 32.4031 77.042 32.2732C76.7783 32.1365 76.4841 32.0681 76.1594 32.0681C75.6928 32.0681 75.2935 32.2185 74.9623 32.5193C74.6377 32.8201 74.4515 33.2371 74.4044 33.7704H77.9145ZM85.0333 37.0622C84.5667 37.0622 84.1471 36.9801 83.7754 36.8161C83.4102 36.645 83.1225 36.4127 82.9131 36.1187C82.7033 35.8179 82.5949 35.4727 82.5884 35.083H83.5725C83.6062 35.418 83.7413 35.7017 83.9783 35.9341C84.2217 36.1598 84.5732 36.2726 85.0333 36.2726C85.4728 36.2726 85.8178 36.1632 86.0681 35.9444C86.325 35.7188 86.4536 35.4317 86.4536 35.083C86.4536 34.8095 86.379 34.5874 86.2304 34.4164C86.0815 34.2455 85.8957 34.1156 85.6725 34.0268C85.4493 33.9379 85.1482 33.8422 84.7696 33.7396C84.3029 33.6166 83.9275 33.4935 83.6435 33.3705C83.366 33.2474 83.1261 33.056 82.9232 32.7962C82.7268 32.5296 82.629 32.1741 82.629 31.7297C82.629 31.34 82.7268 30.9948 82.9232 30.694C83.1192 30.3932 83.3931 30.1607 83.7449 29.9966C84.1033 29.8326 84.5123 29.7505 84.9725 29.7505C85.6352 29.7505 86.1761 29.918 86.5957 30.253C87.0217 30.588 87.2616 31.0324 87.316 31.5861H86.3015C86.2674 31.3127 86.1254 31.0734 85.8754 30.8683C85.625 30.6563 85.2935 30.5504 84.8812 30.5504C84.4957 30.5504 84.1812 30.6529 83.9377 30.858C83.6942 31.0563 83.5725 31.3366 83.5725 31.6989C83.5725 31.9587 83.6435 32.1706 83.7855 32.3347C83.9341 32.4988 84.1134 32.6253 84.3232 32.7141C84.5395 32.7962 84.8406 32.8919 85.2261 33.0013C85.6928 33.1312 86.0681 33.2611 86.3522 33.391C86.6362 33.514 86.8797 33.7089 87.0826 33.9755C87.2855 34.2353 87.387 34.5908 87.387 35.042C87.387 35.3906 87.2957 35.7188 87.1131 36.0264C86.9304 36.3341 86.6598 36.5836 86.3015 36.775C85.9428 36.9666 85.5203 37.0622 85.0333 37.0622ZM93.8178 33.9652C93.8178 34.143 93.8076 34.331 93.7873 34.5292H89.3439C89.3779 35.083 89.5638 35.5171 89.9018 35.8316C90.2467 36.1392 90.6627 36.2931 91.1496 36.2931C91.5489 36.2931 91.8801 36.2008 92.1439 36.0162C92.4145 35.8248 92.604 35.5718 92.712 35.2573H93.7062C93.5576 35.7974 93.2598 36.2384 92.8134 36.5802C92.367 36.9153 91.8127 37.0827 91.1496 37.0827C90.6221 37.0827 90.1489 36.9629 89.7294 36.7238C89.317 36.4845 88.9924 36.1461 88.7554 35.7085C88.5189 35.2642 88.4004 34.7514 88.4004 34.1703C88.4004 33.5892 88.5156 33.0799 88.7453 32.6424C88.9754 32.2048 89.2968 31.8699 89.7091 31.6374C90.1286 31.3981 90.6087 31.2785 91.1496 31.2785C91.6772 31.2785 92.1439 31.3947 92.5496 31.6271C92.9554 31.8596 93.2667 32.1809 93.483 32.5911C93.7062 32.9944 93.8178 33.4525 93.8178 33.9652ZM92.8641 33.7704C92.8641 33.4149 92.7866 33.1107 92.6308 32.8577C92.4754 32.5979 92.2623 32.4031 91.9917 32.2732C91.7279 32.1365 91.4337 32.0681 91.1091 32.0681C90.6424 32.0681 90.2435 32.2185 89.912 32.5193C89.5873 32.8201 89.4015 33.2371 89.354 33.7704H92.8641ZM94.6917 34.1703C94.6917 33.5892 94.8065 33.0833 95.0366 32.6526C95.2663 32.2151 95.5844 31.8767 95.9902 31.6374C96.4026 31.3981 96.8728 31.2785 97.4004 31.2785C98.0833 31.2785 98.6446 31.446 99.0844 31.781C99.5308 32.116 99.825 32.5808 99.967 33.1756H98.9728C98.8779 32.8338 98.692 32.5637 98.4149 32.3655C98.1442 32.1672 97.8062 32.0681 97.4004 32.0681C96.8728 32.0681 96.4467 32.2527 96.1221 32.6219C95.7975 32.9842 95.6352 33.5004 95.6352 34.1703C95.6352 34.8471 95.7975 35.3701 96.1221 35.7393C96.4467 36.1085 96.8728 36.2931 97.4004 36.2931C97.8062 36.2931 98.1442 36.1974 98.4149 36.0059C98.6852 35.8145 98.8714 35.5411 98.9728 35.1855H99.967C99.8181 35.7598 99.5207 36.2213 99.0743 36.5699C98.6279 36.9116 98.0699 37.0827 97.4004 37.0827C96.8728 37.0827 96.4026 36.9629 95.9902 36.7238C95.5844 36.4845 95.2663 36.1461 95.0366 35.7085C94.8065 35.271 94.6917 34.7583 94.6917 34.1703ZM106.129 31.3708V36.9904H105.206V36.1598C105.03 36.4469 104.783 36.6725 104.465 36.8366C104.154 36.9937 103.809 37.0724 103.43 37.0724C102.998 37.0724 102.609 36.9834 102.264 36.8058C101.919 36.6212 101.645 36.3477 101.442 35.9854C101.246 35.6231 101.148 35.1821 101.148 34.6626V31.3708H102.061V34.5395C102.061 35.0933 102.2 35.5206 102.477 35.8213C102.754 36.1153 103.133 36.2623 103.613 36.2623C104.107 36.2623 104.496 36.1085 104.78 35.8008C105.064 35.4932 105.206 35.0454 105.206 34.4575V31.3708H106.129ZM108.611 32.2834C108.774 31.9621 109.003 31.7126 109.301 31.5348C109.605 31.3571 109.974 31.2682 110.407 31.2682V32.2322H110.163C109.129 32.2322 108.611 32.7996 108.611 33.9345V36.9904H107.688V31.3708H108.611V32.2834ZM116.545 33.9652C116.545 34.143 116.535 34.331 116.514 34.5292H112.071C112.105 35.083 112.291 35.5171 112.629 35.8316C112.974 36.1392 113.39 36.2931 113.877 36.2931C114.276 36.2931 114.607 36.2008 114.871 36.0162C115.141 35.8248 115.331 35.5718 115.439 35.2573H116.433C116.284 35.7974 115.987 36.2384 115.541 36.5802C115.094 36.9153 114.539 37.0827 113.877 37.0827C113.349 37.0827 112.876 36.9629 112.457 36.7238C112.044 36.4845 111.719 36.1461 111.483 35.7085C111.246 35.2642 111.128 34.7514 111.128 34.1703C111.128 33.5892 111.242 33.0799 111.472 32.6424C111.702 32.2048 112.024 31.8699 112.436 31.6374C112.855 31.3981 113.336 31.2785 113.877 31.2785C114.404 31.2785 114.871 31.3947 115.277 31.6271C115.683 31.8596 115.993 32.1809 116.21 32.5911C116.433 32.9944 116.545 33.4525 116.545 33.9652ZM115.591 33.7704C115.591 33.4149 115.513 33.1107 115.358 32.8577C115.202 32.5979 114.989 32.4031 114.719 32.2732C114.455 32.1365 114.161 32.0681 113.836 32.0681C113.37 32.0681 112.97 32.2185 112.639 32.5193C112.315 32.8201 112.128 33.2371 112.081 33.7704H115.591ZM124.009 33.3089C124.266 33.3499 124.499 33.4559 124.709 33.6268C124.925 33.7977 125.094 34.0097 125.216 34.2626C125.345 34.5156 125.409 34.7856 125.409 35.0727C125.409 35.4351 125.317 35.7632 125.135 36.0572C124.952 36.3443 124.685 36.5734 124.333 36.7443C123.988 36.9084 123.579 36.9904 123.106 36.9904H120.468V29.8428H123.004C123.484 29.8428 123.894 29.9248 124.232 30.0889C124.57 30.2462 124.824 30.4615 124.993 30.735C125.162 31.0084 125.246 31.3161 125.246 31.6579C125.246 32.0818 125.132 32.4339 124.901 32.7141C124.678 32.9876 124.381 33.1859 124.009 33.3089ZM121.391 32.9295H122.943C123.376 32.9295 123.711 32.827 123.948 32.6219C124.184 32.4168 124.303 32.133 124.303 31.7707C124.303 31.4084 124.184 31.1247 123.948 30.9196C123.711 30.7145 123.37 30.6119 122.923 30.6119H121.391V32.9295ZM123.025 36.2213C123.484 36.2213 123.843 36.1119 124.1 35.8931C124.357 35.6744 124.486 35.3701 124.486 34.9805C124.486 34.5839 124.35 34.2729 124.08 34.0473C123.809 33.8148 123.447 33.6986 122.994 33.6986H121.391V36.2213H123.025ZM126.345 34.1601C126.345 33.5858 126.46 33.0833 126.69 32.6526C126.92 32.2151 127.234 31.8767 127.633 31.6374C128.039 31.3981 128.489 31.2785 128.983 31.2785C129.47 31.2785 129.892 31.3844 130.251 31.5964C130.609 31.8083 130.876 32.0749 131.052 32.3963V31.3708H131.986V36.9904H131.052V35.9444C130.87 36.2726 130.596 36.546 130.23 36.7648C129.872 36.9768 129.453 37.0827 128.972 37.0827C128.479 37.0827 128.032 36.9596 127.633 36.7135C127.234 36.4674 126.92 36.1221 126.69 35.6778C126.46 35.2334 126.345 34.7275 126.345 34.1601ZM131.052 34.1703C131.052 33.7465 130.967 33.3773 130.799 33.0628C130.629 32.7483 130.399 32.5091 130.109 32.345C129.825 32.1741 129.51 32.0886 129.165 32.0886C128.82 32.0886 128.506 32.1706 128.222 32.3347C127.938 32.4988 127.711 32.7381 127.542 33.0526C127.373 33.367 127.288 33.7362 127.288 34.1601C127.288 34.5908 127.373 34.9668 127.542 35.2881C127.711 35.6026 127.938 35.8453 128.222 36.0162C128.506 36.1803 128.82 36.2623 129.165 36.2623C129.51 36.2623 129.825 36.1803 130.109 36.0162C130.399 35.8453 130.629 35.6026 130.799 35.2881C130.967 34.9668 131.052 34.5942 131.052 34.1703ZM133.201 34.1703C133.201 33.5892 133.316 33.0833 133.546 32.6526C133.775 32.2151 134.093 31.8767 134.499 31.6374C134.912 31.3981 135.382 31.2785 135.909 31.2785C136.592 31.2785 137.154 31.446 137.593 31.781C138.04 32.116 138.334 32.5808 138.476 33.1756H137.482C137.387 32.8338 137.201 32.5637 136.924 32.3655C136.653 32.1672 136.315 32.0681 135.909 32.0681C135.382 32.0681 134.956 32.2527 134.631 32.6219C134.307 32.9842 134.144 33.5004 134.144 34.1703C134.144 34.8471 134.307 35.3701 134.631 35.7393C134.956 36.1085 135.382 36.2931 135.909 36.2931C136.315 36.2931 136.653 36.1974 136.924 36.0059C137.194 35.8145 137.38 35.5411 137.482 35.1855H138.476C138.327 35.7598 138.03 36.2213 137.583 36.5699C137.137 36.9116 136.579 37.0827 135.909 37.0827C135.382 37.0827 134.912 36.9629 134.499 36.7238C134.093 36.4845 133.775 36.1461 133.546 35.7085C133.316 35.271 133.201 34.7583 133.201 34.1703ZM142.812 36.9904L140.631 34.5087V36.9904H139.708V29.4019H140.631V33.8627L142.772 31.3708H144.06L141.443 34.1703L144.07 36.9904H142.812ZM150.001 33.9652C150.001 34.143 149.991 34.331 149.971 34.5292H145.528C145.561 35.083 145.747 35.5171 146.086 35.8316C146.43 36.1392 146.846 36.2931 147.333 36.2931C147.732 36.2931 148.064 36.2008 148.328 36.0162C148.598 35.8248 148.787 35.5718 148.896 35.2573H149.89C149.741 35.7974 149.443 36.2384 148.997 36.5802C148.551 36.9153 147.996 37.0827 147.333 37.0827C146.806 37.0827 146.332 36.9629 145.913 36.7238C145.5 36.4845 145.176 36.1461 144.939 35.7085C144.702 35.2642 144.584 34.7514 144.584 34.1703C144.584 33.5892 144.699 33.0799 144.929 32.6424C145.159 32.2048 145.48 31.8699 145.893 31.6374C146.312 31.3981 146.792 31.2785 147.333 31.2785C147.861 31.2785 148.328 31.3947 148.733 31.6271C149.139 31.8596 149.45 32.1809 149.667 32.5911C149.89 32.9944 150.001 33.4525 150.001 33.9652ZM149.048 33.7704C149.048 33.4149 148.97 33.1107 148.815 32.8577C148.659 32.5979 148.446 32.4031 148.175 32.2732C147.912 32.1365 147.617 32.0681 147.293 32.0681C146.826 32.0681 146.427 32.2185 146.096 32.5193C145.771 32.8201 145.585 33.2371 145.538 33.7704H149.048ZM153.929 31.2682C154.605 31.2682 155.153 31.4767 155.572 31.8938C155.991 32.304 156.201 32.8987 156.201 33.6781V36.9904H155.288V33.8114C155.288 33.2508 155.149 32.8235 154.872 32.5296C154.595 32.2288 154.216 32.0784 153.736 32.0784C153.249 32.0784 152.86 32.2322 152.569 32.5398C152.285 32.8475 152.143 33.2953 152.143 33.8832V36.9904H151.22V31.3708H152.143V32.1706C152.326 31.8835 152.572 31.6613 152.884 31.5041C153.201 31.3469 153.55 31.2682 153.929 31.2682ZM157.364 34.1601C157.364 33.5858 157.479 33.0833 157.709 32.6526C157.939 32.2151 158.254 31.8767 158.653 31.6374C159.058 31.3981 159.512 31.2785 160.012 31.2785C160.445 31.2785 160.847 31.381 161.219 31.5861C161.591 31.7844 161.875 32.0476 162.071 32.3757V29.4019H163.005V36.9904H162.071V35.9341C161.889 36.2691 161.618 36.546 161.26 36.7648C160.901 36.9768 160.482 37.0827 160.002 37.0827C159.508 37.0827 159.058 36.9596 158.653 36.7135C158.254 36.4674 157.939 36.1221 157.709 35.6778C157.479 35.2334 157.364 34.7275 157.364 34.1601ZM162.071 34.1703C162.071 33.7465 161.987 33.3773 161.818 33.0628C161.649 32.7483 161.419 32.5091 161.128 32.345C160.844 32.1741 160.529 32.0886 160.184 32.0886C159.84 32.0886 159.525 32.1706 159.241 32.3347C158.957 32.4988 158.73 32.7381 158.561 33.0526C158.392 33.367 158.308 33.7362 158.308 34.1601C158.308 34.5908 158.392 34.9668 158.561 35.2881C158.73 35.6026 158.957 35.8453 159.241 36.0162C159.525 36.1803 159.84 36.2623 160.184 36.2623C160.529 36.2623 160.844 36.1803 161.128 36.0162C161.419 35.8453 161.649 35.6026 161.818 35.2881C161.987 34.9668 162.071 34.5942 162.071 34.1703ZM171.267 29.8428V30.6017H168.193V33.0115H170.688V33.7704H168.193V36.9904H167.27V29.8428H171.267ZM174.806 37.0827C174.286 37.0827 173.812 36.9629 173.386 36.7238C172.967 36.4845 172.635 36.1461 172.392 35.7085C172.155 35.2642 172.037 34.7514 172.037 34.1703C172.037 33.5961 172.158 33.0902 172.402 32.6526C172.652 32.2083 172.99 31.8699 173.416 31.6374C173.842 31.3981 174.319 31.2785 174.847 31.2785C175.374 31.2785 175.851 31.3981 176.277 31.6374C176.703 31.8699 177.038 32.2048 177.282 32.6424C177.532 33.0799 177.657 33.5892 177.657 34.1703C177.657 34.7514 177.529 35.2642 177.271 35.7085C177.021 36.1461 176.68 36.4845 176.247 36.7238C175.814 36.9629 175.334 37.0827 174.806 37.0827ZM174.806 36.2623C175.138 36.2623 175.449 36.1837 175.739 36.0264C176.03 35.8692 176.264 35.6334 176.44 35.3189C176.622 35.0044 176.713 34.6215 176.713 34.1703C176.713 33.7191 176.626 33.3363 176.45 33.0218C176.274 32.7073 176.044 32.4749 175.76 32.3245C175.476 32.1672 175.168 32.0886 174.837 32.0886C174.499 32.0886 174.187 32.1672 173.903 32.3245C173.626 32.4749 173.403 32.7073 173.234 33.0218C173.065 33.3363 172.98 33.7191 172.98 34.1703C172.98 34.6284 173.061 35.0146 173.224 35.3291C173.393 35.6436 173.616 35.8795 173.893 36.0367C174.171 36.1871 174.475 36.2623 174.806 36.2623ZM179.794 32.2834C179.956 31.9621 180.186 31.7126 180.484 31.5348C180.788 31.3571 181.157 31.2682 181.59 31.2682V32.2322H181.346C180.311 32.2322 179.794 32.7996 179.794 33.9345V36.9904H178.871V31.3708H179.794V32.2834ZM190.808 29.8428V36.9904H189.885V33.7499H186.283V36.9904H185.36V29.8428H186.283V32.9808H189.885V29.8428H190.808ZM197.457 33.9652C197.457 34.143 197.446 34.331 197.426 34.5292H192.983C193.017 35.083 193.203 35.5171 193.541 35.8316C193.886 36.1392 194.301 36.2931 194.788 36.2931C195.188 36.2931 195.519 36.2008 195.783 36.0162C196.053 35.8248 196.243 35.5718 196.351 35.2573H197.345C197.196 35.7974 196.899 36.2384 196.452 36.5802C196.006 36.9153 195.451 37.0827 194.788 37.0827C194.261 37.0827 193.788 36.9629 193.368 36.7238C192.956 36.4845 192.631 36.1461 192.394 35.7085C192.158 35.2642 192.039 34.7514 192.039 34.1703C192.039 33.5892 192.154 33.0799 192.384 32.6424C192.614 32.2048 192.936 31.8699 193.348 31.6374C193.767 31.3981 194.247 31.2785 194.788 31.2785C195.316 31.2785 195.783 31.3947 196.188 31.6271C196.594 31.8596 196.905 32.1809 197.122 32.5911C197.345 32.9944 197.457 33.4525 197.457 33.9652ZM196.503 33.7704C196.503 33.4149 196.425 33.1107 196.27 32.8577C196.114 32.5979 195.901 32.4031 195.63 32.2732C195.367 32.1365 195.072 32.0681 194.748 32.0681C194.281 32.0681 193.882 32.2185 193.551 32.5193C193.226 32.8201 193.04 33.2371 192.993 33.7704H196.503ZM198.33 34.1601C198.33 33.5858 198.445 33.0833 198.675 32.6526C198.905 32.2151 199.22 31.8767 199.619 31.6374C200.025 31.3981 200.474 31.2785 200.968 31.2785C201.455 31.2785 201.878 31.3844 202.236 31.5964C202.595 31.8083 202.862 32.0749 203.038 32.3963V31.3708H203.971V36.9904H203.038V35.9444C202.855 36.2726 202.581 36.546 202.216 36.7648C201.857 36.9768 201.438 37.0827 200.958 37.0827C200.464 37.0827 200.018 36.9596 199.619 36.7135C199.22 36.4674 198.905 36.1221 198.675 35.6778C198.445 35.2334 198.33 34.7275 198.33 34.1601ZM203.038 34.1703C203.038 33.7465 202.953 33.3773 202.784 33.0628C202.615 32.7483 202.385 32.5091 202.094 32.345C201.81 32.1741 201.496 32.0886 201.151 32.0886C200.806 32.0886 200.491 32.1706 200.207 32.3347C199.923 32.4988 199.696 32.7381 199.528 33.0526C199.358 33.367 199.274 33.7362 199.274 34.1601C199.274 34.5908 199.358 34.9668 199.528 35.2881C199.696 35.6026 199.923 35.8453 200.207 36.0162C200.491 36.1803 200.806 36.2623 201.151 36.2623C201.496 36.2623 201.81 36.1803 202.094 36.0162C202.385 35.8453 202.615 35.6026 202.784 35.2881C202.953 34.9668 203.038 34.5942 203.038 34.1703ZM206.454 29.4019V36.9904H205.531V29.4019H206.454ZM209.154 32.1399V35.4522C209.154 35.7256 209.211 35.9205 209.326 36.0367C209.441 36.1461 209.641 36.2008 209.925 36.2008H210.604V36.9904H209.772C209.258 36.9904 208.873 36.8706 208.616 36.6315C208.359 36.3922 208.23 35.9991 208.23 35.4522V32.1399H207.51V31.3708H208.23V29.9556H209.154V31.3708H210.604V32.1399H209.154ZM214.482 31.2682C214.902 31.2682 215.28 31.3605 215.618 31.5451C215.957 31.7228 216.221 31.9929 216.41 32.3552C216.606 32.7176 216.704 33.1585 216.704 33.6781V36.9904H215.791V33.8114C215.791 33.2508 215.653 32.8235 215.375 32.5296C215.098 32.2288 214.719 32.0784 214.239 32.0784C213.752 32.0784 213.363 32.2322 213.072 32.5398C212.788 32.8475 212.646 33.2953 212.646 33.8832V36.9904H211.723V29.4019H212.646V32.1706C212.829 31.8835 213.079 31.6613 213.397 31.5041C213.721 31.3469 214.083 31.2682 214.482 31.2682ZM222.067 32.8372V33.6268H218.019V32.8372H222.067ZM228.152 29.8428V30.6017H226.224V36.9904H225.301V30.6017H223.363V29.8428H228.152ZM234.361 33.9652C234.361 34.143 234.351 34.331 234.33 34.5292H229.887C229.921 35.083 230.107 35.5171 230.445 35.8316C230.79 36.1392 231.206 36.2931 231.693 36.2931C232.092 36.2931 232.423 36.2008 232.687 36.0162C232.957 35.8248 233.147 35.5718 233.255 35.2573H234.249C234.1 35.7974 233.803 36.2384 233.357 36.5802C232.91 36.9153 232.355 37.0827 231.693 37.0827C231.165 37.0827 230.692 36.9629 230.272 36.7238C229.86 36.4845 229.535 36.1461 229.299 35.7085C229.062 35.2642 228.943 34.7514 228.943 34.1703C228.943 33.5892 229.058 33.0799 229.288 32.6424C229.518 32.2048 229.839 31.8699 230.252 31.6374C230.671 31.3981 231.151 31.2785 231.693 31.2785C232.22 31.2785 232.687 31.3947 233.093 31.6271C233.499 31.8596 233.809 32.1809 234.026 32.5911C234.249 32.9944 234.361 33.4525 234.361 33.9652ZM233.407 33.7704C233.407 33.4149 233.329 33.1107 233.174 32.8577C233.018 32.5979 232.805 32.4031 232.535 32.2732C232.271 32.1365 231.977 32.0681 231.652 32.0681C231.186 32.0681 230.786 32.2185 230.455 32.5193C230.13 32.8201 229.944 33.2371 229.897 33.7704H233.407ZM235.234 34.1703C235.234 33.5892 235.349 33.0833 235.579 32.6526C235.809 32.2151 236.127 31.8767 236.533 31.6374C236.946 31.3981 237.416 31.2785 237.943 31.2785C238.626 31.2785 239.188 31.446 239.627 31.781C240.074 32.116 240.368 32.5808 240.51 33.1756H239.516C239.421 32.8338 239.235 32.5637 238.958 32.3655C238.687 32.1672 238.349 32.0681 237.943 32.0681C237.416 32.0681 236.99 32.2527 236.665 32.6219C236.34 32.9842 236.178 33.5004 236.178 34.1703C236.178 34.8471 236.34 35.3701 236.665 35.7393C236.99 36.1085 237.416 36.2931 237.943 36.2931C238.349 36.2931 238.687 36.1974 238.958 36.0059C239.228 35.8145 239.414 35.5411 239.516 35.1855H240.51C240.361 35.7598 240.063 36.2213 239.617 36.5699C239.171 36.9116 238.613 37.0827 237.943 37.0827C237.416 37.0827 236.946 36.9629 236.533 36.7238C236.127 36.4845 235.809 36.1461 235.579 35.7085C235.349 35.271 235.234 34.7583 235.234 34.1703ZM244.501 31.2682C244.92 31.2682 245.299 31.3605 245.637 31.5451C245.975 31.7228 246.239 31.9929 246.429 32.3552C246.625 32.7176 246.723 33.1585 246.723 33.6781V36.9904H245.81V33.8114C245.81 33.2508 245.671 32.8235 245.394 32.5296C245.116 32.2288 244.738 32.0784 244.258 32.0784C243.771 32.0784 243.382 32.2322 243.091 32.5398C242.807 32.8475 242.665 33.2953 242.665 33.8832V36.9904H241.742V29.4019H242.665V32.1706C242.847 31.8835 243.097 31.6613 243.416 31.5041C243.74 31.3469 244.102 31.2682 244.501 31.2682ZM248.525 37.0519C248.349 37.0519 248.2 36.9904 248.079 36.8673C247.957 36.7443 247.896 36.5939 247.896 36.4161C247.896 36.2384 247.957 36.088 248.079 35.9649C248.2 35.8419 248.349 35.7803 248.525 35.7803C248.694 35.7803 248.836 35.8419 248.951 35.9649C249.073 36.088 249.134 36.2384 249.134 36.4161C249.134 36.5939 249.073 36.7443 248.951 36.8673C248.836 36.9904 248.694 37.0519 248.525 37.0519Z" fill="#084B83"/>
        <path d="M61.908 12.9338C61.908 11.315 62.2768 9.86289 63.0148 8.57739C63.7685 7.29188 64.7811 6.29203 66.0529 5.57786C67.3402 4.84783 68.7456 4.4828 70.2685 4.4828C72.0112 4.4828 73.5576 4.91925 74.908 5.79211C76.2739 6.64912 77.263 7.87116 77.8754 9.4582H74.6489C74.225 8.58533 73.6362 7.93463 72.8826 7.50613C72.129 7.07762 71.2576 6.86337 70.2685 6.86337C69.1851 6.86337 68.2196 7.10938 67.3717 7.60135C66.5239 8.09332 65.8565 8.79958 65.3699 9.72006C64.8989 10.6405 64.6634 11.7118 64.6634 12.9338C64.6634 14.1559 64.8989 15.2271 65.3699 16.1476C65.8565 17.0681 66.5239 17.7823 67.3717 18.2901C68.2196 18.7821 69.1851 19.0281 70.2685 19.0281C71.2576 19.0281 72.129 18.8138 72.8826 18.3853C73.6362 17.9568 74.225 17.3061 74.6489 16.4333H77.8754C77.263 18.0203 76.2739 19.2424 74.908 20.0994C73.5576 20.9564 72.0112 21.3849 70.2685 21.3849C68.7297 21.3849 67.3246 21.0278 66.0529 20.3136C64.7811 19.5836 63.7685 18.5758 63.0148 17.2903C62.2768 16.0048 61.908 14.5526 61.908 12.9338ZM80.1228 14.624C80.1228 13.3068 80.3898 12.1403 80.9235 11.1246C81.4732 10.1089 82.2112 9.32331 83.1373 8.76783C84.0793 8.19649 85.1156 7.91082 86.246 7.91082C87.2667 7.91082 88.1536 8.11713 88.9072 8.52977C89.6768 8.92652 90.2891 9.42644 90.7442 10.0295V8.12508H93.4525V21.242H90.7442V19.29C90.2891 19.9089 89.6688 20.4247 88.8837 20.8373C88.0989 21.25 87.204 21.4563 86.1989 21.4563C85.0844 21.4563 84.0638 21.1706 83.1373 20.5993C82.2112 20.0121 81.4732 19.2027 80.9235 18.1711C80.3898 17.1236 80.1228 15.9413 80.1228 14.624ZM90.7442 14.6717C90.7442 13.767 90.5558 12.9814 90.179 12.3149C89.8181 11.6483 89.3391 11.1405 88.7424 10.7913C88.146 10.4422 87.5022 10.2676 86.8112 10.2676C86.1206 10.2676 85.4768 10.4422 84.8801 10.7913C84.2837 11.1246 83.7967 11.6245 83.4199 12.2911C83.059 12.9418 82.8783 13.7194 82.8783 14.624C82.8783 15.5287 83.059 16.3222 83.4199 17.0046C83.7967 17.687 84.2837 18.2108 84.8801 18.5758C85.4924 18.9249 86.1362 19.0995 86.8112 19.0995C87.5022 19.0995 88.146 18.9249 88.7424 18.5758C89.3391 18.2267 89.8181 17.7188 90.179 17.0522C90.5558 16.3698 90.7442 15.5763 90.7442 14.6717ZM99.6638 10.0295C100.056 9.36297 100.574 8.8472 101.218 8.48216C101.878 8.10127 102.655 7.91082 103.55 7.91082V10.7199H102.867C101.815 10.7199 101.014 10.9897 100.464 11.5293C99.9308 12.0689 99.6638 13.0053 99.6638 14.3384V21.242H96.979V8.12508H99.6638V10.0295ZM105.122 14.624C105.122 13.3068 105.389 12.1403 105.923 11.1246C106.473 10.1089 107.211 9.32331 108.137 8.76783C109.079 8.19649 110.123 7.91082 111.269 7.91082C112.117 7.91082 112.949 8.10127 113.766 8.48216C114.598 8.8472 115.257 9.33917 115.744 9.95812V3.62579H118.452V21.242H115.744V19.2662C115.304 19.901 114.692 20.4247 113.907 20.8373C113.138 21.25 112.251 21.4563 111.246 21.4563C110.115 21.4563 109.079 21.1706 108.137 20.5993C107.211 20.0121 106.473 19.2027 105.923 18.1711C105.389 17.1236 105.122 15.9413 105.122 14.624ZM115.744 14.6717C115.744 13.767 115.555 12.9814 115.179 12.3149C114.818 11.6483 114.339 11.1405 113.742 10.7913C113.146 10.4422 112.502 10.2676 111.811 10.2676C111.12 10.2676 110.476 10.4422 109.88 10.7913C109.283 11.1246 108.796 11.6245 108.42 12.2911C108.059 12.9418 107.878 13.7194 107.878 14.624C107.878 15.5287 108.059 16.3222 108.42 17.0046C108.796 17.687 109.283 18.2108 109.88 18.5758C110.492 18.9249 111.136 19.0995 111.811 19.0995C112.502 19.0995 113.146 18.9249 113.742 18.5758C114.339 18.2267 114.818 17.7188 115.179 17.0522C115.555 16.3698 115.744 15.5763 115.744 14.6717ZM123.345 6.38726C122.858 6.38726 122.45 6.22062 122.12 5.88734C121.79 5.55406 121.625 5.14141 121.625 4.64944C121.625 4.15747 121.79 3.74482 122.12 3.41154C122.45 3.07826 122.858 2.91162 123.345 2.91162C123.816 2.91162 124.216 3.07826 124.546 3.41154C124.875 3.74482 125.04 4.15747 125.04 4.64944C125.04 5.14141 124.875 5.55406 124.546 5.88734C124.216 6.22062 123.816 6.38726 123.345 6.38726ZM124.663 8.12508V21.242H121.979V8.12508H124.663ZM134.735 7.91082C135.756 7.91082 136.667 8.12508 137.467 8.55358C138.284 8.98208 138.92 9.61689 139.375 10.458C139.83 11.2992 140.058 12.3149 140.058 13.5052V21.242H137.397V13.9099C137.397 12.7354 137.106 11.8388 136.525 11.2198C135.944 10.585 135.151 10.2676 134.147 10.2676C133.142 10.2676 132.341 10.585 131.745 11.2198C131.163 11.8388 130.873 12.7354 130.873 13.9099V21.242H128.188V8.12508H130.873V9.62484C131.313 9.08525 131.87 8.66466 132.545 8.36313C133.236 8.06161 133.966 7.91082 134.735 7.91082ZM142.588 14.624C142.588 13.3068 142.854 12.1403 143.388 11.1246C143.938 10.1089 144.676 9.32331 145.602 8.76783C146.544 8.19649 147.58 7.91082 148.711 7.91082C149.731 7.91082 150.618 8.11713 151.372 8.52977C152.141 8.92652 152.754 9.42644 153.209 10.0295V8.12508H155.917V21.242H153.209V19.29C152.754 19.9089 152.133 20.4247 151.349 20.8373C150.563 21.25 149.668 21.4563 148.664 21.4563C147.549 21.4563 146.528 21.1706 145.602 20.5993C144.676 20.0121 143.938 19.2027 143.388 18.1711C142.854 17.1236 142.588 15.9413 142.588 14.624ZM153.209 14.6717C153.209 13.767 153.021 12.9814 152.644 12.3149C152.283 11.6483 151.804 11.1405 151.207 10.7913C150.61 10.4422 149.967 10.2676 149.276 10.2676C148.585 10.2676 147.941 10.4422 147.345 10.7913C146.748 11.1246 146.262 11.6245 145.885 12.2911C145.524 12.9418 145.343 13.7194 145.343 14.624C145.343 15.5287 145.524 16.3222 145.885 17.0046C146.262 17.687 146.748 18.2108 147.345 18.5758C147.957 18.9249 148.601 19.0995 149.276 19.0995C149.967 19.0995 150.61 18.9249 151.207 18.5758C151.804 18.2267 152.283 17.7188 152.644 17.0522C153.021 16.3698 153.209 15.5763 153.209 14.6717ZM162.128 3.62579V21.242H159.443V3.62579H162.128Z" fill="#084B83"/>
    </g>
    <defs>
        <clipPath id="clip0_5465_52886">
            <rect width="250" height="57.5" fill="white"/>
        </clipPath>
    </defs>
</svg>
