<svg width="131" height="35" viewBox="0 0 131 35" fill="none" xmlns="http://www.w3.org/2000/svg">
    <g clip-path="url(#clip0_5465_52865)">
        <mask id="mask0_5465_52865" style="mask-type:luminance" maskUnits="userSpaceOnUse" x="0" y="0" width="35" height="35">
            <path d="M35 0H0V35H35V0Z" fill="white"/>
        </mask>
        <g mask="url(#mask0_5465_52865)">
            <mask id="mask1_5465_52865" style="mask-type:luminance" maskUnits="userSpaceOnUse" x="0" y="0" width="35" height="35">
                <path d="M35 0H0V35H35V0Z" fill="white"/>
            </mask>
            <g mask="url(#mask1_5465_52865)">
                <path d="M30.0974 0H4.8125C2.15463 0 0 2.15463 0 4.8125V30.1009C0 32.7588 2.15463 34.9134 4.8125 34.9134H30.0974C32.7552 34.9134 34.9099 32.7588 34.9099 30.1009V4.8125C34.9099 2.15463 32.7552 0 30.0974 0Z" fill="#084B83"/>
                <path fill-rule="evenodd" clip-rule="evenodd" d="M30.5279 4.38561V13.3327C30.4825 15.2608 30.6772 16.9049 30.26 18.1885C29.5855 20.2653 28.513 21.3601 26.9338 22.8915C25.646 24.1399 24.3783 25.4086 23.1103 26.6768C22.1064 27.6805 20.9951 28.8423 20.0131 29.8119C19.6789 30.142 19.4776 30.3172 19.2484 30.5384V20.1385C19.2634 19.8763 19.2756 19.7321 19.3249 19.5267C19.4116 19.1656 19.4671 18.7964 19.5926 18.456C19.987 17.3855 20.4692 16.5665 21.0838 15.7414C21.5935 15.2445 22.0652 14.7471 22.575 14.2502C23.0307 13.7491 23.473 13.3523 23.913 12.912C24.5631 12.2495 25.2132 11.5865 25.8632 10.9239C27.1702 9.61689 28.1119 8.86426 28.272 6.67978C26.888 6.64989 25.9617 7.19896 25.2132 7.82673C25.0159 7.99236 24.7967 8.25456 24.6014 8.43848C24.4949 8.5388 24.3827 8.66003 24.372 8.66786C24.3103 8.71288 24.0413 9.00001 23.9513 9.08852C23.5914 9.4432 23.3668 9.63714 22.9573 10.0826C22.7915 10.2355 22.5876 10.4649 22.4218 10.6178C22.0436 10.9964 21.6926 11.3646 21.3133 11.7267C21.122 11.9307 20.8925 12.1346 20.7013 12.3384C20.0363 13.0034 19.3746 13.7417 18.5984 14.2886C17.7174 14.909 16.7135 15.3319 15.5015 15.5885C14.6873 15.7608 12.9743 15.7033 11.7544 15.7033H4.375C4.94012 15.162 7.67012 12.408 8.08364 11.9944C9.43486 10.6435 10.7856 9.29226 12.1368 7.94157C13.4349 6.6432 14.6006 5.37051 16.5719 4.72979C17.953 4.28082 19.911 4.38561 21.7336 4.38561H30.5279Z" fill="white"/>
            </g>
        </g>
    </g>
    <path d="M43.74 17.52C43.74 16.16 44.0533 14.94 44.68 13.86C45.32 12.78 46.18 11.94 47.26 11.34C48.3533 10.7267 49.5467 10.42 50.84 10.42C52.32 10.42 53.6333 10.7867 54.78 11.52C55.94 12.24 56.78 13.2667 57.3 14.6H54.56C54.2 13.8667 53.7 13.32 53.06 12.96C52.42 12.6 51.68 12.42 50.84 12.42C49.92 12.42 49.1 12.6267 48.38 13.04C47.66 13.4533 47.0933 14.0467 46.68 14.82C46.28 15.5933 46.08 16.4933 46.08 17.52C46.08 18.5467 46.28 19.4467 46.68 20.22C47.0933 20.9933 47.66 21.5933 48.38 22.02C49.1 22.4333 49.92 22.64 50.84 22.64C51.68 22.64 52.42 22.46 53.06 22.1C53.7 21.74 54.2 21.1933 54.56 20.46H57.3C56.78 21.7933 55.94 22.82 54.78 23.54C53.6333 24.26 52.32 24.62 50.84 24.62C49.5333 24.62 48.34 24.32 47.26 23.72C46.18 23.1067 45.32 22.26 44.68 21.18C44.0533 20.1 43.74 18.88 43.74 17.52ZM59.2088 18.94C59.2088 17.8333 59.4354 16.8533 59.8888 16C60.3554 15.1467 60.9821 14.4867 61.7688 14.02C62.5688 13.54 63.4488 13.3 64.4088 13.3C65.2754 13.3 66.0288 13.4733 66.6688 13.82C67.3221 14.1533 67.8421 14.5733 68.2288 15.08V13.48H70.5288V24.5H68.2288V22.86C67.8421 23.38 67.3154 23.8133 66.6488 24.16C65.9821 24.5067 65.2221 24.68 64.3688 24.68C63.4221 24.68 62.5554 24.44 61.7688 23.96C60.9821 23.4667 60.3554 22.7867 59.8888 21.92C59.4354 21.04 59.2088 20.0467 59.2088 18.94ZM68.2288 18.98C68.2288 18.22 68.0688 17.56 67.7488 17C67.4421 16.44 67.0354 16.0133 66.5288 15.72C66.0221 15.4267 65.4754 15.28 64.8888 15.28C64.3021 15.28 63.7554 15.4267 63.2488 15.72C62.7421 16 62.3288 16.42 62.0088 16.98C61.7021 17.5267 61.5488 18.18 61.5488 18.94C61.5488 19.7 61.7021 20.3667 62.0088 20.94C62.3288 21.5133 62.7421 21.9533 63.2488 22.26C63.7688 22.5533 64.3154 22.7 64.8888 22.7C65.4754 22.7 66.0221 22.5533 66.5288 22.26C67.0354 21.9667 67.4421 21.54 67.7488 20.98C68.0688 20.4067 68.2288 19.74 68.2288 18.98ZM75.8034 15.08C76.1368 14.52 76.5768 14.0867 77.1234 13.78C77.6834 13.46 78.3434 13.3 79.1034 13.3V15.66H78.5234C77.6301 15.66 76.9501 15.8867 76.4834 16.34C76.0301 16.7933 75.8034 17.58 75.8034 18.7V24.5H73.5234V13.48H75.8034V15.08ZM80.4392 18.94C80.4392 17.8333 80.6659 16.8533 81.1192 16C81.5859 15.1467 82.2126 14.4867 82.9992 14.02C83.7992 13.54 84.6859 13.3 85.6592 13.3C86.3792 13.3 87.0859 13.46 87.7792 13.78C88.4859 14.0867 89.0459 14.5 89.4592 15.02V9.7H91.7592V24.5H89.4592V22.84C89.0859 23.3733 88.5659 23.8133 87.8992 24.16C87.2459 24.5067 86.4926 24.68 85.6392 24.68C84.6792 24.68 83.7992 24.44 82.9992 23.96C82.2126 23.4667 81.5859 22.7867 81.1192 21.92C80.6659 21.04 80.4392 20.0467 80.4392 18.94ZM89.4592 18.98C89.4592 18.22 89.2992 17.56 88.9792 17C88.6726 16.44 88.2659 16.0133 87.7592 15.72C87.2526 15.4267 86.7059 15.28 86.1192 15.28C85.5326 15.28 84.9859 15.4267 84.4792 15.72C83.9726 16 83.5592 16.42 83.2392 16.98C82.9326 17.5267 82.7792 18.18 82.7792 18.94C82.7792 19.7 82.9326 20.3667 83.2392 20.94C83.5592 21.5133 83.9726 21.9533 84.4792 22.26C84.9992 22.5533 85.5459 22.7 86.1192 22.7C86.7059 22.7 87.2526 22.5533 87.7592 22.26C88.2659 21.9667 88.6726 21.54 88.9792 20.98C89.2992 20.4067 89.4592 19.74 89.4592 18.98ZM95.9139 12.02C95.5006 12.02 95.1539 11.88 94.8739 11.6C94.5939 11.32 94.4539 10.9733 94.4539 10.56C94.4539 10.1467 94.5939 9.8 94.8739 9.52C95.1539 9.24 95.5006 9.1 95.9139 9.1C96.3139 9.1 96.6539 9.24 96.9339 9.52C97.2139 9.8 97.3539 10.1467 97.3539 10.56C97.3539 10.9733 97.2139 11.32 96.9339 11.6C96.6539 11.88 96.3139 12.02 95.9139 12.02ZM97.0339 13.48V24.5H94.7539V13.48H97.0339ZM105.587 13.3C106.454 13.3 107.227 13.48 107.907 13.84C108.601 14.2 109.141 14.7333 109.527 15.44C109.914 16.1467 110.107 17 110.107 18V24.5H107.847V18.34C107.847 17.3533 107.601 16.6 107.107 16.08C106.614 15.5467 105.941 15.28 105.087 15.28C104.234 15.28 103.554 15.5467 103.047 16.08C102.554 16.6 102.307 17.3533 102.307 18.34V24.5H100.027V13.48H102.307V14.74C102.681 14.2867 103.154 13.9333 103.727 13.68C104.314 13.4267 104.934 13.3 105.587 13.3ZM112.256 18.94C112.256 17.8333 112.482 16.8533 112.936 16C113.402 15.1467 114.029 14.4867 114.816 14.02C115.616 13.54 116.496 13.3 117.456 13.3C118.322 13.3 119.076 13.4733 119.716 13.82C120.369 14.1533 120.889 14.5733 121.276 15.08V13.48H123.576V24.5H121.276V22.86C120.889 23.38 120.362 23.8133 119.696 24.16C119.029 24.5067 118.269 24.68 117.416 24.68C116.469 24.68 115.602 24.44 114.816 23.96C114.029 23.4667 113.402 22.7867 112.936 21.92C112.482 21.04 112.256 20.0467 112.256 18.94ZM121.276 18.98C121.276 18.22 121.116 17.56 120.796 17C120.489 16.44 120.082 16.0133 119.576 15.72C119.069 15.4267 118.522 15.28 117.936 15.28C117.349 15.28 116.802 15.4267 116.296 15.72C115.789 16 115.376 16.42 115.056 16.98C114.749 17.5267 114.596 18.18 114.596 18.94C114.596 19.7 114.749 20.3667 115.056 20.94C115.376 21.5133 115.789 21.9533 116.296 22.26C116.816 22.5533 117.362 22.7 117.936 22.7C118.522 22.7 119.069 22.5533 119.576 22.26C120.082 21.9667 120.489 21.54 120.796 20.98C121.116 20.4067 121.276 19.74 121.276 18.98ZM128.85 9.7V24.5H126.57V9.7H128.85Z" fill="#084B83"/>
    <defs>
        <clipPath id="clip0_5465_52865">
            <rect width="35" height="35" fill="white"/>
        </clipPath>
    </defs>
</svg>
